<?xml version="1.0" encoding="UTF-8"?>
<svg id="favicon" xmlns="http://www.w3.org/2000/svg" viewBox="0 0 39.32 41.2">
  <defs>
    <style>
      .cls-1, .cls-2, .cls-3 {
        fill: #fff;
      }

      .cls-2 {
        stroke-miterlimit: 10;
      }

      .cls-2, .cls-4, .cls-3, .cls-5 {
        stroke: #000;
      }

      .cls-4 {
        stroke-width: 1.34px;
      }

      .cls-4, .cls-3, .cls-5 {
        stroke-linecap: round;
        stroke-linejoin: round;
      }

      .cls-3, .cls-5 {
        stroke-width: 1.04px;
      }
    </style>
  </defs>
  <g id="cuadricula_base_ojo_isotipo" data-name="cuadricula base ojo isotipo">
    <polygon class="cls-5" points="3.01 37.25 3.01 5.38 4.44 3.95 36.31 3.95 36.31 35.82 34.88 37.25 3.01 37.25"/>
    <rect class="cls-3" x="4.44" y="3.95" width="31.87" height="31.87" transform="translate(40.26 -.48) rotate(90)"/>
  </g>
  <g id="fondo_ojo" data-name="fondo ojo">
    <rect class="cls-1" x="7.89" y="7.44" width="24.9" height="24.9" rx="12.45" ry="12.45" transform="translate(20.02 -8.55) rotate(45)"/>
    <path d="M20.34,32.86c-3.32,0-6.64-1.26-9.17-3.79-5.06-5.06-5.06-13.29,0-18.35,5.06-5.06,13.29-5.06,18.35,0,5.06,5.06,5.06,13.29,0,18.35-2.53,2.53-5.85,3.79-9.17,3.79ZM20.34,7.97c-3.06,0-6.11,1.16-8.44,3.49-4.65,4.65-4.65,12.22,0,16.87s12.22,4.65,16.87,0c4.65-4.65,4.65-12.22,0-16.87-2.33-2.33-5.38-3.49-8.44-3.49Z"/>
  </g>
  <g id="ojo_pupila" data-name="ojo+pupila">
    <ellipse class="cls-4" cx="20.34" cy="20.44" rx="6.68" ry="7.01"/>
    <circle class="cls-2" cx="24.15" cy="18.67" r="1.74"/>
  </g>
  <g id="capa_superior_ojo" data-name="capa superior ojo">
    <g>
      <path class="cls-1" d="M32.79,19.9c-8.31-9.33-16.6-9.33-24.9.01,0-3.19,1.22-6.37,3.65-8.8,2.43-2.43,5.62-3.65,8.81-3.65s6.37,1.22,8.8,3.65,3.64,5.6,3.64,8.79Z"/>
      <path d="M7.89,20.43c-.06,0-.12-.01-.19-.03-.2-.08-.33-.27-.33-.49,0-3.46,1.35-6.72,3.8-9.17s5.71-3.8,9.18-3.8,6.72,1.35,9.17,3.8c2.45,2.45,3.79,5.7,3.79,9.16,0,.22-.13.41-.33.49-.2.08-.43.02-.57-.14-4.03-4.53-8.09-6.82-12.06-6.82h0c-3.97,0-8.03,2.3-12.06,6.83-.1.11-.24.17-.39.17ZM20.35,7.97c-3.19,0-6.19,1.24-8.44,3.5-1.92,1.92-3.1,4.37-3.41,7.02,3.91-4.05,7.89-6.11,11.84-6.11h0c3.95,0,7.93,2.05,11.85,6.1-.31-2.65-1.49-5.1-3.4-7.01-2.26-2.26-5.25-3.5-8.43-3.5Z"/>
    </g>
    <g>
      <path class="cls-1" d="M7.89,19.89c8.31,9.33,16.6,9.33,24.9-.01,0,3.19-1.22,6.37-3.65,8.8-2.43,2.43-5.62,3.65-8.81,3.65s-6.37-1.22-8.8-3.65-3.64-5.6-3.64-8.79Z"/>
      <path d="M20.33,32.85c-3.46,0-6.72-1.35-9.17-3.8-2.45-2.44-3.79-5.7-3.79-9.16,0-.22.13-.41.33-.49.2-.08.43-.02.57.14,4.03,4.53,8.09,6.82,12.06,6.82h0c3.97,0,8.03-2.3,12.05-6.83.14-.16.37-.22.57-.14.2.08.34.27.34.49,0,3.46-1.35,6.72-3.8,9.17-2.45,2.45-5.71,3.8-9.18,3.8ZM8.49,21.31c.31,2.65,1.49,5.1,3.41,7.01,2.25,2.26,5.25,3.5,8.43,3.5s6.19-1.24,8.44-3.5c1.92-1.92,3.1-4.37,3.41-7.02-3.91,4.05-7.89,6.11-11.84,6.11h0c-3.95,0-7.93-2.05-11.85-6.1Z"/>
    </g>
  </g>
</svg>