<?xml version="1.0" encoding="UTF-8"?>
<svg id="isotipo" xmlns="http://www.w3.org/2000/svg" viewBox="0 0 84.14 85.63">
  <defs>
    <style>
      .cls-1, .cls-2, .cls-3 {
        fill: #fff;
      }

      .cls-2 {
        stroke-miterlimit: 10;
      }

      .cls-2, .cls-4, .cls-3, .cls-5 {
        stroke: #000;
      }

      .cls-4 {
        stroke-width: 1.34px;
      }

      .cls-4, .cls-3, .cls-5 {
        stroke-linecap: round;
        stroke-linejoin: round;
      }

      .cls-3, .cls-5 {
        stroke-width: 1.04px;
      }
    </style>
  </defs>
  <g id="isotipo-2" data-name="isotipo">
    <g id="capa_base_isotipo" data-name="capa base isotipo">
      <g>
        <polygon points="17.39 67.43 17.39 35.56 18.82 34.13 50.69 34.13 50.69 66 49.26 67.43 17.39 67.43"/>
        <path d="M49.26,67.95h-31.87c-.29,0-.52-.23-.52-.52v-31.87c0-.14.05-.27.15-.37l1.43-1.43c.1-.1.23-.15.37-.15h31.87c.29,0,.52.23.52.52v31.87c0,.14-.05.27-.15.37l-1.43,1.43c-.1.1-.23.15-.37.15ZM17.91,66.91h31.13l1.12-1.12v-31.13h-31.13l-1.12,1.12v31.13Z"/>
      </g>
      <g>
        <rect class="cls-1" x="18.82" y="34.13" width="31.87" height="31.87" transform="translate(84.82 15.32) rotate(90)"/>
        <path d="M50.69,66.52h-31.87c-.29,0-.52-.23-.52-.52v-31.87c0-.29.23-.52.52-.52h31.87c.29,0,.52.23.52.52v31.87c0,.29-.23.52-.52.52ZM19.34,65.48h30.83v-30.83h-30.83v30.83Z"/>
      </g>
      <g>
        <rect x="22.79" y="38.11" width="23.92" height="23.92" transform="translate(84.82 15.32) rotate(90)"/>
        <path d="M46.71,62.53h-23.92c-.28,0-.5-.22-.5-.5v-23.92c0-.28.22-.5.5-.5h23.92c.28,0,.5.22.5.5v23.92c0,.28-.22.5-.5.5ZM23.29,61.53h22.92v-22.92h-22.92v22.92Z"/>
      </g>
    </g>
    <g id="intermedio_isotipo" data-name="intermedio isotipo">
      <g>
        <polygon points="50.69 66 50.69 34.13 66.62 18.2 66.62 50.07 50.69 66"/>
        <path d="M50.69,66.52c-.07,0-.13-.01-.2-.04-.19-.08-.32-.27-.32-.48v-31.87c0-.14.05-.27.15-.37l15.93-15.93c.15-.15.37-.19.57-.11.19.08.32.27.32.48v31.87c0,.14-.05.27-.15.37l-15.93,15.93c-.1.1-.23.15-.37.15ZM51.21,34.35v30.4l14.89-14.89v-30.4l-14.89,14.89Z"/>
      </g>
    </g>
    <g id="cuadricula_base_ojo_isotipo" data-name="cuadricula base ojo isotipo">
      <polygon class="cls-5" points="33.32 51.5 33.32 19.63 34.75 18.2 66.62 18.2 66.62 50.07 65.19 51.5 33.32 51.5"/>
      <rect class="cls-3" x="34.75" y="18.2" width="31.87" height="31.87" transform="translate(84.82 -16.55) rotate(90)"/>
    </g>
    <g id="fondo_ojo" data-name="fondo ojo">
      <rect class="cls-1" x="38.2" y="21.69" width="24.9" height="24.9" rx="12.45" ry="12.45" transform="translate(38.98 -25.82) rotate(45)"/>
      <path d="M50.65,47.11c-3.32,0-6.64-1.26-9.17-3.79-5.06-5.06-5.06-13.29,0-18.35,5.06-5.06,13.29-5.06,18.35,0,5.06,5.06,5.06,13.29,0,18.35-2.53,2.53-5.85,3.79-9.17,3.79ZM50.65,22.21c-3.06,0-6.11,1.16-8.44,3.49-4.65,4.65-4.65,12.22,0,16.87s12.22,4.65,16.87,0c4.65-4.65,4.65-12.22,0-16.87-2.33-2.33-5.38-3.49-8.44-3.49Z"/>
    </g>
    <g id="ojo_pupila" data-name="ojo+pupila">
      <ellipse class="cls-4" cx="50.65" cy="34.68" rx="6.68" ry="7.01"/>
      <circle class="cls-2" cx="54.47" cy="32.92" r="1.74"/>
    </g>
    <g id="capa_superior_ojo" data-name="capa superior ojo">
      <g>
        <path class="cls-1" d="M63.1,34.14c-8.31-9.33-16.6-9.33-24.9.01,0-3.19,1.22-6.37,3.65-8.8,2.43-2.43,5.62-3.65,8.81-3.65s6.37,1.22,8.8,3.65,3.64,5.6,3.64,8.79Z"/>
        <path d="M38.2,34.67c-.06,0-.12-.01-.19-.03-.2-.08-.33-.27-.33-.49,0-3.46,1.35-6.72,3.8-9.17s5.71-3.8,9.18-3.8,6.72,1.35,9.17,3.8c2.45,2.45,3.79,5.7,3.79,9.16,0,.22-.13.41-.33.49-.2.08-.43.02-.57-.14-4.03-4.53-8.09-6.82-12.06-6.82h0c-3.97,0-8.03,2.3-12.06,6.83-.1.11-.24.17-.39.17ZM50.66,22.22c-3.19,0-6.19,1.24-8.44,3.5-1.92,1.92-3.1,4.37-3.41,7.02,3.91-4.05,7.89-6.11,11.84-6.11h0c3.95,0,7.93,2.05,11.85,6.1-.31-2.65-1.49-5.1-3.4-7.01-2.26-2.26-5.25-3.5-8.43-3.5Z"/>
      </g>
      <g>
        <path class="cls-1" d="M38.2,34.14c8.31,9.33,16.6,9.33,24.9-.01,0,3.19-1.22,6.37-3.65,8.8-2.43,2.43-5.62,3.65-8.81,3.65s-6.37-1.22-8.8-3.65-3.64-5.6-3.64-8.79Z"/>
        <path d="M50.64,47.1c-3.46,0-6.72-1.35-9.17-3.8-2.45-2.44-3.79-5.7-3.79-9.16,0-.22.13-.41.33-.49.2-.08.43-.02.57.14,4.03,4.53,8.09,6.82,12.06,6.82h0c3.97,0,8.03-2.3,12.05-6.83.14-.16.37-.22.57-.14.2.08.34.27.34.49,0,3.46-1.35,6.72-3.8,9.17-2.45,2.45-5.71,3.8-9.18,3.8ZM38.8,35.55c.31,2.65,1.49,5.1,3.41,7.01,2.25,2.26,5.25,3.5,8.43,3.5s6.19-1.24,8.44-3.5c1.92-1.92,3.1-4.37,3.41-7.02-3.91,4.05-7.89,6.11-11.84,6.11h0c-3.95,0-7.93-2.05-11.85-6.1Z"/>
      </g>
    </g>
  </g>
</svg>