<?xml version="1.0" encoding="UTF-8"?>
<svg id="logotipo" xmlns="http://www.w3.org/2000/svg" viewBox="0 0 154.45 85.63">
  <g id="logotipo-2" data-name="logotipo">
    <g id="taller">
      <path d="M17.5,57.21h1.98c.13,0,.26,0,.4,0,.14,0,.28,0,.43,0,0-.3-.02-.63-.04-.97s-.04-.76-.07-1.26c.08-.07.19-.11.35-.12s.32,0,.49,0,.36.02.54.04c.18.02.34.01.46,0v2.29h1.56c.51,0,.98,0,1.42-.01.14-.1.25-.24.32-.43s.14-.39.18-.6c.04-.22.07-.44.08-.66,0-.22,0-.42,0-.58.14-.02.29-.04.46-.06s.34-.03.52-.04.35,0,.53,0c.18.01.34.05.49.09.02.39.02.8,0,1.22-.02.42-.08.82-.17,1.19-.09.37-.22.71-.4,1-.18.29-.42.5-.72.63-.76.13-1.47.2-2.15.22s-1.37.02-2.09.01c0,.16.01.32.01.49v.57l-1.8-.04c0-.2.01-.38.01-.55v-.49c-.22,0-.45,0-.7.02s-.5.01-.76.01-.5,0-.74,0c-.24,0-.45-.02-.63-.04-.02-.13-.02-.27-.01-.42,0-.15.02-.31.04-.48s.03-.33.04-.5c0-.17,0-.33-.01-.5Z"/>
      <path d="M20.25,48.26c.06,0,.12-.02.18-.02.06,0,.12,0,.18,0h.15c1.06.03,2.11.02,3.13-.01,1.03-.04,2.07-.03,3.12.04.13,0,.26,0,.38,0,.13,0,.2.07.22.18v.18c0,.16,0,.32-.02.48-.01.16-.02.32-.02.48,0,.11,0,.21.02.32.01.1.02.21.02.32-.02.07-.06.11-.12.14-.06.02-.13.04-.21.04-.11,0-.2,0-.27-.03-.07-.02-.15-.03-.25-.03.24.24.44.53.6.89.17.36.25.71.25,1.05,0,.38-.13.71-.4.98-.27.27-.59.49-.99.67-.39.18-.82.31-1.28.39-.46.08-.89.12-1.28.12-.49,0-.94-.06-1.36-.19-.41-.13-.77-.3-1.07-.52s-.54-.48-.71-.79-.26-.63-.27-.97c0-.18,0-.34,0-.49s.03-.29.07-.42c.04-.13.11-.24.21-.34.09-.1.22-.18.39-.25-.16,0-.29,0-.41-.02s-.23-.04-.35-.04c0,0-.02-.03-.02-.09,0-.06,0-.14,0-.21,0-.08,0-.16,0-.24v-.16c0-.17.02-.37.03-.61,0-.24.02-.52.04-.83ZM23.18,52.55c.13.04.26.06.39.07.13,0,.26.02.39.02.44,0,.82-.12,1.13-.35.31-.23.46-.55.46-.97,0-.25-.04-.43-.13-.55-.08-.12-.2-.21-.35-.27s-.34-.08-.56-.09c-.22,0-.47,0-.74,0-.34,0-.62,0-.82,0-.2,0-.36.03-.46.07s-.18.12-.21.22c-.03.1-.04.26-.04.46,0,.4.1.72.29.95.19.23.41.37.66.42Z"/>
      <path d="M16.87,47.14l.04-2c.4,0,.89,0,1.46.02s1.18.02,1.83.03c.65,0,1.32.02,2.02.02.7,0,1.37,0,2.02,0s1.26,0,1.82-.01c.57,0,1.04-.02,1.44-.04.06.05.09.17.1.37,0,.2,0,.41,0,.64s-.01.45-.02.66c0,.21,0,.34.01.41-.88-.07-1.77-.1-2.67-.08-.89.01-1.79.04-2.68.07-.89.03-1.79.05-2.68.05-.89,0-1.79-.04-2.68-.13Z"/>
      <path d="M16.87,44.11l.04-2c.4,0,.89,0,1.46.01.57,0,1.18.02,1.83.03.65,0,1.32.02,2.02.02.7,0,1.37,0,2.02,0s1.26,0,1.82-.02c.57,0,1.04-.02,1.44-.04.06.05.09.17.1.37s0,.41,0,.64-.01.45-.02.66c0,.21,0,.34.01.41-.88-.07-1.77-.09-2.67-.08-.89.01-1.79.04-2.68.07-.89.03-1.79.05-2.68.05-.89,0-1.79-.04-2.68-.13Z"/>
      <path d="M23.89,39.34h.27c.29,0,.54-.02.72-.04.19-.02.37-.08.55-.18.23-.12.39-.28.5-.5s.14-.43.1-.63c-.04-.21-.16-.38-.36-.52-.2-.14-.5-.2-.91-.18,0-.1.01-.23,0-.4,0-.17-.01-.34-.02-.52,0-.18-.01-.36,0-.52,0-.17.02-.3.05-.41.26.02.51.04.75.06.25.02.47.04.69.07s.39.07.55.11c.15.04.26.1.32.17.24.17.4.38.5.65.1.27.16.56.18.87.02.31.02.64,0,.97-.02.33-.03.63-.03.91-.04.28-.13.53-.27.77-.19.27-.43.49-.73.66s-.63.32-.99.43c-.36.11-.74.18-1.14.22-.4.04-.81.05-1.21.03-.36-.03-.72-.06-1.05-.1s-.67-.11-1-.23c-.28-.13-.53-.32-.73-.59-.2-.27-.35-.56-.46-.9-.1-.33-.16-.69-.17-1.06,0-.37.03-.74.12-1.09.08-.45.24-.82.47-1.09s.52-.48.85-.63c.33-.14.7-.23,1.11-.26.4-.03.81-.03,1.22,0,.02.07.04.2.06.39.02.19.04.42.06.68s.03.54.04.83.01.58.01.85,0,.51-.01.73-.02.37-.04.47ZM21.6,37.56c-.05.08-.09.16-.11.24s-.04.17-.04.28c0,.24.02.43.07.58.05.15.12.27.21.35s.19.15.31.2c.12.04.24.08.37.1.11.02.18.03.23.02.04,0,.07-.05.09-.14.01-.09.02-.23.01-.42,0-.19,0-.47,0-.85,0-.26,0-.45.01-.57,0-.13.01-.22,0-.27s-.02-.08-.04-.08h-.16c-.2,0-.38.05-.56.15-.18.1-.31.24-.4.42Z"/>
      <path d="M20.73,32.55s-.06-.13-.12-.27c-.06-.14-.11-.28-.16-.42-.06-.19-.11-.4-.14-.63-.03-.24-.06-.46-.07-.66,0-.21-.01-.38,0-.52,0-.14.01-.21.02-.21.33,0,.63,0,.88,0,.26,0,.48,0,.69,0h.55c.17,0,.32,0,.47-.01l-.04.13s-.04.1-.05.15c-.01.05-.03.11-.05.15-.03.12-.05.24-.07.36-.02.12-.03.19-.03.2-.03.27-.04.51-.04.73s.03.41.1.58c.07.16.18.29.32.38s.36.13.63.12c.34,0,.67-.02.97-.03.3,0,.61-.01.92-.01s.62,0,.94,0c.32,0,.66,0,1.02,0h.06c.05.17.08.32.09.46,0,.14.01.28,0,.43,0,.15-.01.31-.02.48,0,.17,0,.38.01.61-1.21,0-2.42.01-3.63.04-1.21.03-2.46.02-3.76-.02,0-.12.02-.22.02-.29,0-.08,0-.15,0-.22s0-.14,0-.22-.01-.18-.02-.29c0-.04,0-.11-.01-.21,0-.1-.02-.21-.03-.32,0-.11-.01-.21,0-.29s.02-.12.04-.12h.27s.05,0,.08,0c.03,0,.08,0,.15,0Z"/>
    </g>
    <g id="nifty">
      <path d="M38.69,32.63c.19-.12.44-.25.73-.41.29-.15.53-.31.73-.47.82-.58,1.73-1.05,2.74-1.4,1.01-.35,2.05-.54,3.12-.58,1.07-.04,2.11.08,3.12.35,1.01.27,1.93.76,2.74,1.46.39.35.69,1.08.9,2.19.21,1.11.35,2.44.41,4s.08,3.26.06,5.1c-.02,1.85-.05,3.71-.09,5.6-.04,1.89-.08,3.7-.12,5.45-.04,1.75-.02,3.29.06,4.61-1.36.19-2.58.28-3.65.26-1.07-.02-2.29-.03-3.65-.03-.08-.89-.12-1.91-.12-3.03s0-2.29.03-3.5c.02-1.21.02-2.41,0-3.62-.02-1.21-.07-2.33-.15-3.38-.04-.47-.08-.98-.12-1.55-.04-.56-.11-1.12-.2-1.66-.1-.54-.23-1.03-.41-1.46-.18-.43-.42-.76-.73-.99-.04-.04-.08-.06-.12-.06s-.08-.02-.12-.06c-.31-.15-.77-.28-1.37-.38-.6-.1-1.2-.06-1.78.12-.58.17-1.11.52-1.58,1.05-.47.53-.74,1.31-.82,2.36-.08,1.36-.1,2.69-.06,4,.04,1.3.09,2.61.15,3.91s.09,2.6.09,3.88-.08,2.57-.23,3.85v.23c-.66.19-1.24.31-1.72.35-.49.04-.98.05-1.49.03-.51-.02-1.07-.05-1.69-.09-.62-.04-1.4-.02-2.33.06,0-4.78-.05-9.57-.15-14.35-.1-4.78-.07-9.74.09-14.88.47.04.85.07,1.17.09.31.02.6.03.87.03s.56,0,.88-.03c.31-.02.7-.05,1.17-.09.16,0,.43-.03.82-.09.39-.06.78-.11,1.17-.15.39-.04.74-.05,1.05-.03.31.02.47.09.47.2.08.66.11,1.21.09,1.63-.02.43,0,.91.03,1.46Z"/>
      <path d="M64.3,29.31h.99v.17c-.04,4.71-.13,9.51-.26,14.41-.14,4.9-.07,9.7.2,14.41-.19.23-.68.36-1.46.38-.78.02-1.62.02-2.54,0-.91-.02-1.78-.05-2.6-.09-.82-.04-1.36-.02-1.63.06.19-2.45.28-4.94.26-7.47-.02-2.53-.07-5.04-.15-7.53-.08-2.49-.12-4.95-.12-7.38s.12-4.79.35-7.09v-.06c.15-.04.42-.04.79,0,.37.04.65.06.85.06.5.04,1.21.08,2.1.12.89.04,1.96.04,3.21,0ZM57.13,16.59l7.93.18c0,.23,0,.65.03,1.25.02.6.04,1.26.06,1.98.02.72.04,1.46.06,2.22.02.76.03,1.43.03,2.01-.16.23-.52.39-1.08.47-.56.08-1.23.11-1.98.09s-1.57-.06-2.42-.12c-.86-.06-1.65-.07-2.39-.03,0-1.13-.05-2.3-.15-3.53-.1-1.23-.13-2.73-.09-4.52Z"/>
      <path d="M79.76,50.6v7.82c-.66-.08-1.32-.1-1.98-.06-.66.04-1.32.09-1.98.15-.66.06-1.29.11-1.9.15s-1.16.02-1.66-.06c-.08-.47-.13-1.23-.15-2.3-.02-1.07-.04-2.28-.06-3.62-.02-1.34-.03-2.75-.03-4.23s0-2.91.03-4.29c.02-1.38.04-2.62.06-3.7.02-1.09.03-1.93.03-2.51h-1.95c-.68,0-1.41.02-2.19.06l-.18-7.12h2.25c.68,0,1.33.02,1.95.06-.08-.97-.06-2.02.06-3.15.12-1.13.4-2.23.85-3.3.45-1.07,1.08-2.04,1.9-2.92.82-.87,1.89-1.53,3.21-1.96,1.63-.54,3.41-.88,5.34-1.02,1.93-.14,3.8-.16,5.63-.09.19.58.32,1.23.38,1.93s.07,1.4.03,2.1-.1,1.38-.17,2.04c-.08.66-.16,1.26-.23,1.81-.47-.04-1-.04-1.61,0s-1.23.1-1.9.17c-.66.08-1.32.17-1.98.26-.66.1-1.26.19-1.81.26-.9.16-1.45.61-1.66,1.37-.21.76-.22,1.62-.03,2.6h8.93c-.08.43-.1.85-.06,1.25.04.41.04.88,0,1.43v1.02c0,.25,0,.52-.03.79-.02.27-.05.62-.09,1.05-.04.43-.1,1.01-.17,1.75-1.98-.12-3.65-.21-4.99-.29-1.34-.08-2.62-.14-3.82-.18v12.72Z"/>
      <path d="M101.81,18.75v7.82c0,.51,0,1.03.03,1.58.02.55.03,1.11.03,1.69,1.21-.04,2.48-.1,3.82-.17,1.34-.08,3-.18,4.99-.29.27.31.43.77.47,1.37s.04,1.25,0,1.95-.09,1.41-.15,2.13c-.06.72-.05,1.33.03,1.84h-9.04v6.15c0,2,.02,3.88.06,5.63.39.54.95.97,1.69,1.28.74.31,1.54.55,2.39.73.85.17,1.72.28,2.6.32.87.04,1.64.04,2.3,0,.08.55.15,1.15.23,1.81.08.66.14,1.34.17,2.04s.03,1.4-.03,2.1-.18,1.34-.38,1.93c-1.56.08-3.17.07-4.84-.03-1.67-.1-3.25-.32-4.73-.67s-2.79-.87-3.94-1.58c-1.15-.7-1.97-1.65-2.48-2.86-.51-2.99-.8-5.82-.88-8.49-.08-2.66-.1-5.42-.06-8.25-.62.04-1.27.06-1.96.06h-2.25l.17-7.12c.78.04,1.51.06,2.19.06h1.95c0-.85-.02-1.78-.06-2.77-.04-.99-.06-1.99-.06-3s0-1.98.03-2.92c.02-.93.07-1.77.15-2.51.5-.08,1.06-.1,1.66-.06s1.23.09,1.9.15c.66.06,1.32.11,1.98.15.66.04,1.32.02,1.98-.06Z"/>
      <path d="M120.66,29.66c.27,1.4.58,3.06.93,4.99s.72,3.88,1.11,5.86.8,3.88,1.23,5.69c.43,1.81.85,3.3,1.28,4.46.43-1.17.78-2.7,1.05-4.61.27-1.9.53-3.89.79-5.95.25-2.06.53-4.04.85-5.95.31-1.9.7-3.44,1.17-4.61,1.32.04,2.66.02,4.03-.06,1.36-.08,2.86-.06,4.49.06-.62,2.33-1.18,4.56-1.66,6.68-.49,2.12-.96,4.19-1.43,6.21-.51,1.91-.96,3.91-1.37,6.01-.41,2.1-.91,4.16-1.52,6.18-.6,2.02-1.37,3.95-2.31,5.77-.93,1.83-2.17,3.41-3.7,4.76-1.54,1.34-3.44,2.36-5.72,3.06-2.28.7-5.07.95-8.37.76-.39-1.17-.59-2.48-.61-3.94-.02-1.46.07-2.73.26-3.82.93,0,1.9.04,2.89.12.99.08,1.88.03,2.65-.15.78-.17,1.37-.55,1.78-1.14.41-.58.52-1.52.32-2.8-.82-4.71-1.85-9.41-3.09-14.12-1.25-4.71-2.47-9.26-3.68-13.65,1.4.16,2.88.19,4.43.09,1.56-.1,2.96-.07,4.2.09Z"/>
    </g>
  </g>
</svg>