<svg xmlns="http://www.w3.org/2000/svg" viewBox="0 0 160 48" role="img" aria-labelledby="title">
  <title>Taller Nifty</title>
  <rect width="48" height="48" rx="14" fill="#0f172a" />
  <path d="M12 34V14h5.5l14 14V14H37v20h-5.5l-14-14v14H12Z" fill="#f8fafc" />
  <path d="M65 32V16h5.29l7.06 8.82L84.4 16h5.28v16h-4.65V23.5l-7.68 9.39-7.7-9.39V32H65Zm29.12 0V16h4.69v16h-4.69Zm14.38 0V16h4.7v11.84h11.1V32h-15.8Zm19.96 0V16h12.46v3.97h-7.76v2.36h6.97v3.8h-6.97v2.03h7.95V32h-12.65Z" fill="#0f172a" />
</svg>
