<?xml version="1.0" encoding="UTF-8"?>
<svg id="favicon" xmlns="http://www.w3.org/2000/svg" xmlns:xlink="http://www.w3.org/1999/xlink" viewBox="0 0 40 40">
  <defs>
    <style>
      .cls-1 {
        fill: #fff;
      }

      .cls-2 {
        fill: url(#Dorado-4);
      }

      .cls-3 {
        fill: url(#Dorado-3);
      }

      .cls-4 {
        fill: url(#Dorado);
      }

      .cls-5 {
        fill: url(#Dorado-2);
      }
    </style>
    <linearGradient id="Dorado" x1="1.34" y1="37.17" x2="63.24" y2="-19.98" gradientTransform="translate(1.66 40) rotate(-90)" gradientUnits="userSpaceOnUse">
      <stop offset="0" stop-color="#fccb00"/>
      <stop offset=".25" stop-color="#fffad2"/>
      <stop offset=".3" stop-color="#f9f0c0"/>
      <stop offset=".39" stop-color="#ecd893"/>
      <stop offset=".51" stop-color="#d7b14c"/>
      <stop offset=".6" stop-color="#c9961a"/>
      <stop offset=".81" stop-color="#e9cd75"/>
      <stop offset=".87" stop-color="#f2dc8e"/>
      <stop offset="1" stop-color="#fffad2"/>
    </linearGradient>
    <linearGradient id="Dorado-2" data-name="Dorado" x1="1.32" y1="37.15" x2="63.22" y2="-20" gradientTransform="translate(-7.47 20.32) rotate(-45)" xlink:href="#Dorado"/>
    <linearGradient id="Dorado-3" data-name="Dorado" x1="-.25" y1="35.44" x2="61.65" y2="-21.71" gradientTransform="matrix(1,0,0,1,0,0)" xlink:href="#Dorado"/>
    <linearGradient id="Dorado-4" data-name="Dorado" x1="2.9" y1="38.86" x2="64.8" y2="-18.29" gradientTransform="matrix(1,0,0,1,0,0)" xlink:href="#Dorado"/>
  </defs>
  <g id="cuadricula_base_ojo_isotipo" data-name="cuadricula base ojo isotipo">
    <g>
      <polygon points=".61 39.39 .61 2.27 2.27 .61 39.39 .61 39.39 37.73 37.73 39.39 .61 39.39"/>
      <path d="M37.73,40H.61c-.33,0-.61-.27-.61-.61V2.27c0-.16.06-.32.18-.43L1.84.18c.11-.11.27-.18.43-.18h37.12c.33,0,.61.27.61.61v37.12c0,.16-.06.32-.18.43l-1.66,1.66c-.11.11-.27.18-.43.18ZM1.21,38.79h36.27l1.31-1.31V1.21H2.52l-1.31,1.31v36.27Z"/>
    </g>
    <g>
      <rect class="cls-4" x="2.27" y=".61" width="37.12" height="37.12" transform="translate(40 -1.66) rotate(90)"/>
      <path d="M39.39,38.34H2.27c-.33,0-.61-.27-.61-.61V.61c0-.33.27-.61.61-.61h37.12c.33,0,.61.27.61.61v37.12c0,.33-.27.61-.61.61ZM2.88,37.12h35.91V1.21H2.88v35.91Z"/>
    </g>
  </g>
  <g id="fondo_ojo" data-name="fondo ojo">
    <rect class="cls-5" x="6.29" y="4.67" width="29.01" height="29.01" rx="14.51" ry="14.51" transform="translate(19.65 -9.09) rotate(45)"/>
    <path d="M20.79,34.28c-3.87,0-7.74-1.47-10.69-4.42-5.89-5.89-5.89-15.48,0-21.37,5.89-5.89,15.48-5.89,21.37,0,5.89,5.89,5.89,15.48,0,21.37-2.95,2.95-6.82,4.42-10.69,4.42ZM20.79,5.28c-3.56,0-7.12,1.35-9.83,4.06-5.42,5.42-5.42,14.24,0,19.66s14.24,5.42,19.66,0c5.42-5.42,5.42-14.24,0-19.66-2.71-2.71-6.27-4.06-9.83-4.06Z"/>
  </g>
  <g id="ojo_pupila" data-name="ojo+pupila">
    <g>
      <ellipse cx="20.79" cy="19.81" rx="7.78" ry="8.16"/>
      <path d="M20.79,28.75c-4.72,0-8.57-4.01-8.57-8.95s3.84-8.95,8.57-8.95,8.57,4.01,8.57,8.95-3.84,8.95-8.57,8.95ZM20.79,12.43c-3.86,0-7,3.31-7,7.38s3.14,7.38,7,7.38,7-3.31,7-7.38-3.14-7.38-7-7.38Z"/>
    </g>
    <g>
      <circle class="cls-1" cx="25.24" cy="17.75" r="2.03"/>
      <path d="M25.24,20.36c-.7,0-1.35-.27-1.85-.77s-.77-1.15-.77-1.85.27-1.35.77-1.85c.99-.99,2.71-.99,3.69,0,.49.49.77,1.15.77,1.85s-.27,1.35-.77,1.85h0c-.49.49-1.15.77-1.85.77ZM25.24,16.3c-.39,0-.75.15-1.02.42-.27.27-.42.64-.42,1.02s.15.75.42,1.02c.55.55,1.5.55,2.05,0h0c.27-.27.42-.64.42-1.02s-.15-.75-.42-1.02c-.27-.27-.64-.42-1.02-.42Z"/>
    </g>
  </g>
  <g id="capa_superior_ojo" data-name="capa superior ojo">
    <g>
      <path class="cls-3" d="M35.3,19.18c-9.68-10.87-19.34-10.87-29.01.01,0-3.72,1.42-7.42,4.25-10.25,2.83-2.83,6.55-4.25,10.26-4.25s7.42,1.42,10.25,4.25,4.24,6.52,4.24,10.24Z"/>
      <path d="M6.29,19.79c-.07,0-.15-.01-.22-.04-.23-.09-.39-.32-.39-.57,0-4.03,1.57-7.82,4.43-10.68s6.65-4.43,10.69-4.43,7.82,1.57,10.68,4.43c2.85,2.85,4.42,6.64,4.42,10.67,0,.25-.16.48-.39.57-.23.09-.5.02-.67-.16-4.7-5.27-9.42-7.95-14.05-7.95h0c-4.63,0-9.35,2.68-14.04,7.96-.12.13-.28.2-.45.2ZM20.8,5.29c-3.71,0-7.21,1.45-9.83,4.07-2.23,2.23-3.61,5.09-3.98,8.17,4.56-4.72,9.19-7.11,13.79-7.12h0c4.6,0,9.24,2.39,13.8,7.11-.36-3.08-1.74-5.94-3.97-8.16-2.63-2.63-6.12-4.07-9.82-4.07Z"/>
    </g>
    <g>
      <path class="cls-2" d="M6.29,19.17c9.68,10.87,19.34,10.87,29.01-.01,0,3.72-1.42,7.42-4.25,10.25-2.83,2.83-6.55,4.25-10.26,4.25s-7.42-1.42-10.25-4.25-4.24-6.52-4.24-10.24Z"/>
      <path d="M20.78,34.27c-4.03,0-7.82-1.57-10.68-4.43-2.85-2.85-4.42-6.64-4.42-10.67,0-.25.16-.48.39-.57.23-.09.5-.03.67.16,4.7,5.27,9.43,7.95,14.05,7.95h0c4.63,0,9.35-2.68,14.04-7.96.17-.19.43-.25.67-.16.24.09.39.32.39.57,0,4.03-1.57,7.82-4.43,10.68-2.86,2.86-6.65,4.43-10.69,4.43ZM6.99,20.82c.36,3.08,1.74,5.94,3.97,8.16,2.63,2.63,6.12,4.07,9.82,4.07s7.21-1.45,9.83-4.07c2.23-2.23,3.61-5.09,3.98-8.17-4.56,4.72-9.19,7.11-13.79,7.12h0c-4.6,0-9.24-2.39-13.8-7.11Z"/>
    </g>
  </g>
</svg>
